<?xml version="1.0" encoding="utf-8"?>
<!-- Generator: Adobe Illustrator 21.1.0, SVG Export Plug-In . SVG Version: 6.00 Build 0)  -->
<svg xmlns="http://www.w3.org/2000/svg" xmlns:xlink="http://www.w3.org/1999/xlink" version="1.1" id="Layer_1" x="0px" y="0px" viewBox="0 0 128 128" style="enable-background:new 0 0 128 128;" xml:space="preserve" width="64px" height="64px">
<style type="text/css">
	.st0{fill:#FFFFFF;}
	.st1{fill:#444B54;}
	.st2{fill:#71C2FF;}
	.st3{fill:none;stroke:#404242;stroke-width:1.5;stroke-linecap:round;stroke-linejoin:round;stroke-miterlimit:10;}
	.st4{fill:none;stroke:#373536;stroke-width:1.5;stroke-linecap:round;stroke-linejoin:round;stroke-miterlimit:10;}
	.st5{fill:#2298E0;}
	.st6{fill:#3F4A54;}
	.st7{fill:#454B54;}
	.st8{fill:none;stroke:#444B54;stroke-width:6;stroke-linecap:round;stroke-linejoin:round;stroke-miterlimit:10;}
	.st9{fill:#FCCA3D;}
	.st10{fill:#1FD4AF;}
	.st11{fill:#FF5576;}
</style>
<g>
	<g>
		<circle class="st0" cx="64" cy="64" r="55"/>
	</g>
	<g>
		<path class="st6" d="M64,122C32,122,6,96,6,64S32,6,64,6s58,26,58,58S96,122,64,122z M64,12c-28.7,0-52,23.3-52,52s23.3,52,52,52    s52-23.3,52-52S92.7,12,64,12z"/>
	</g>
	<path class="st2" d="M78,56.5C78,50.7,73.3,46,67.5,46H66v-2c0-1.7-1.3-3-3-3s-3,1.3-3,3v2h-7c-1.7,0-3,1.3-3,3   c0,1.3,0.8,2.4,2,2.8v24.3c-1.2,0.4-2,1.5-2,2.8c0,1.7,1.3,3,3,3h7v2c0,1.7,1.3,3,3,3s3-1.3,3-3v-2h1.5C73.3,82,78,77.3,78,71.5   c0-2.9-1.2-5.6-3.2-7.5C76.8,62.1,78,59.4,78,56.5z M67.5,76H58v-9h9.5c2.5,0,4.5,2,4.5,4.5S70,76,67.5,76z M67.5,61H58v-9h9.5   c2.5,0,4.5,2,4.5,4.5S70,61,67.5,61z"/>
</g>
</svg>
